<svg width="25" height="25" viewBox="0 0 25 25" fill="none" xmlns="http://www.w3.org/2000/svg">
<path d="M3.625 11.125C3.625 9.22525 3.62606 7.85073 3.76699 6.80254C3.90598 5.76873 4.17272 5.12753 4.65013 4.65013C5.12753 4.17272 5.76873 3.90598 6.80254 3.76699C7.85073 3.62606 9.22525 3.625 11.125 3.625H13.875C15.7748 3.625 17.1493 3.62606 18.1975 3.76699C19.2313 3.90598 19.8725 4.17272 20.3499 4.65013C20.8273 5.12753 21.094 5.76873 21.233 6.80254C21.3739 7.85073 21.375 9.22525 21.375 11.125V13.875C21.375 15.7748 21.3739 17.1493 21.233 18.1975C21.094 19.2313 20.8273 19.8725 20.3499 20.3499C19.8725 20.8273 19.2313 21.094 18.1975 21.233C17.1493 21.3739 15.7748 21.375 13.875 21.375H11.125C9.22525 21.375 7.85073 21.3739 6.80254 21.233C5.76873 21.094 5.12753 20.8273 4.65013 20.3499C4.17272 19.8725 3.90598 19.2313 3.76699 18.1975C3.62606 17.1493 3.625 15.7748 3.625 13.875V11.125Z" stroke="#7E869E" stroke-opacity="0.25"/>
<path d="M12.5 8.3335L12.5 16.6668" stroke="#222222" stroke-linejoin="round"/>
<path d="M16.6667 12.5L8.33335 12.5" stroke="#222222" stroke-linejoin="round"/>
</svg>
