<svg width="29" height="33" viewBox="0 0 29 33" fill="none" xmlns="http://www.w3.org/2000/svg">
<path d="M8.06055 32.1562H20.9395C23.0859 32.1562 24.2754 31.0625 24.3711 28.9707L25.2188 9.54297H26.873C27.748 9.54297 28.4043 8.91406 28.4043 8.03906C28.4043 7.17773 27.748 6.54883 26.873 6.54883H21.1992V4.56641C21.1992 2.20117 19.709 0.861328 17.084 0.861328H11.8887C9.26367 0.861328 7.77344 2.20117 7.77344 4.56641V6.54883H2.11328C1.25195 6.54883 0.582031 7.17773 0.582031 8.03906C0.582031 8.91406 1.25195 9.54297 2.11328 9.54297H3.78125L4.62891 28.9707C4.71094 31.0625 5.90039 32.1562 8.06055 32.1562ZM11.2051 4.67578C11.2051 4.16992 11.5332 3.86914 12.1211 3.86914H16.8516C17.4395 3.86914 17.7812 4.16992 17.7812 4.67578V6.54883H11.2051V4.67578ZM10.0293 27.5352C9.40039 27.5352 8.94922 27.1113 8.93555 26.4824L8.52539 12.5234C8.51172 11.8809 8.93555 11.4434 9.5918 11.4434C10.248 11.4434 10.6992 11.8672 10.7129 12.5098L11.123 26.4688C11.1367 27.0977 10.6992 27.5352 10.0293 27.5352ZM14.5 27.5352C13.8438 27.5352 13.3926 27.1113 13.3926 26.4824V12.4961C13.3926 11.8672 13.8438 11.4434 14.5 11.4434C15.1426 11.4434 15.5938 11.8672 15.5938 12.4961V26.4824C15.5938 27.1113 15.1426 27.5352 14.5 27.5352ZM18.957 27.5352C18.2871 27.5352 17.8496 27.0977 17.8633 26.4688L18.2734 12.5098C18.2871 11.8672 18.7383 11.457 19.3945 11.457C20.0508 11.457 20.4746 11.8809 20.4609 12.5234L20.0508 26.4824C20.0371 27.125 19.5859 27.5352 18.957 27.5352Z" fill="#1E1EAE"/>
</svg>
