<svg width="47" height="48" viewBox="0 0 47 48" fill="none" xmlns="http://www.w3.org/2000/svg">
<path fill-rule="evenodd" clip-rule="evenodd" d="M44.949 27.5693C45.4896 27.5732 46.0048 27.8012 46.3736 28.1996C46.7435 28.5902 46.9354 29.1183 46.9032 29.6572C46.316 39.5473 38.1877 47.2652 28.3578 47.2663H18.5477C8.71781 47.2652 0.589541 39.5473 0.00231145 29.6572C-0.0234346 29.1196 0.166756 28.5942 0.529947 28.1996C0.896127 27.7963 1.41413 27.5674 1.95652 27.5693H9.02683C9.4577 27.5734 9.84037 27.2925 9.96875 26.8779C10.4791 25.2422 11.9806 24.1271 13.6817 24.1204H23.4625C25.1637 24.1271 26.6652 25.2422 27.1755 26.8779C27.3028 27.289 27.6804 27.5691 28.1077 27.5693H38.5959C39.1355 27.5693 39.573 27.1284 39.573 26.5845V5.90264C39.5752 5.12424 39.1224 4.41754 38.4175 4.09938C37.7127 3.78123 36.8881 3.9113 36.3134 4.43128L35.5122 5.23885C35.2514 5.50351 35.1614 5.89391 35.2796 6.24734C35.961 8.27591 35.444 10.5184 33.9449 12.0363L33.554 12.4401C32.7909 13.209 31.5539 13.209 30.7908 12.4401L25.6219 7.22825C24.859 6.45908 24.859 5.21226 25.6219 4.4431L26.0225 4.03931C27.5463 2.57211 29.7463 2.06673 31.7503 2.72355C32.0983 2.83501 32.479 2.74157 32.7372 2.48128L33.642 1.56931C35.3518 -0.0231477 37.8344 -0.445059 39.9677 0.494276C42.101 1.43361 43.4808 3.5562 43.4834 5.90264V26.5845C43.4834 27.1284 43.9208 27.5693 44.4605 27.5693H44.949ZM22.4757 39.8799C23.0153 39.8799 23.4528 39.439 23.4528 38.8951V29.0466C23.4528 28.5027 23.0153 28.0617 22.4757 28.0617H14.6588C14.1192 28.0617 13.6817 28.5027 13.6817 29.0466V38.8951C13.6817 39.439 14.1192 39.8799 14.6588 39.8799H22.4757Z" fill="#F1B53C"/>
<path d="M17.5902 11.985C17.8724 11.9875 18.1517 11.9283 18.409 11.8117L21.9578 10.1611C22.5928 9.86726 23.0241 9.25433 23.0891 8.55316C23.1542 7.85199 22.8432 7.1691 22.2733 6.76172C21.7033 6.35435 20.9611 6.28438 20.3261 6.57818L16.7714 8.22681C15.938 8.61439 15.4846 9.53425 15.6814 10.4378C15.8783 11.3413 16.6724 11.985 17.5902 11.985Z" fill="#F1B53C"/>
<path d="M27.5996 22.6624C28.592 23.0891 29.7397 22.6245 30.1635 21.6244L31.6995 18.0002C32.0956 17.006 31.6308 15.8751 30.6533 15.4545C29.6757 15.0339 28.5439 15.4779 28.1057 16.4539L26.5795 20.0841C26.1588 21.0801 26.6144 22.2315 27.5996 22.6624Z" fill="#F1B53C"/>
<path d="M20.4941 17.8706C21.2534 18.6433 22.4904 18.6495 23.2573 17.8844L26.0362 15.115C26.7823 14.3465 26.7792 13.117 26.0292 12.3524C25.2792 11.5878 24.0594 11.5708 23.2886 12.3141L20.5097 15.0854C19.7425 15.8502 19.7355 17.0971 20.4941 17.8706Z" fill="#F1B53C"/>
</svg>
