<svg width="24" height="16" viewBox="0 0 24 16" fill="none" xmlns="http://www.w3.org/2000/svg">
<path fill-rule="evenodd" clip-rule="evenodd" d="M1.3182 1.14611L1.45176 1.00163C1.94127 0.50944 2.67052 0.263184 3.63885 0.263184H20.234C21.1465 0.263184 21.8477 0.477333 22.3376 0.90531L22.3543 0.921364C22.4544 1.00709 22.5549 1.10854 22.6548 1.22637C22.6548 1.23729 22.6605 1.24789 22.6715 1.25848L22.6882 1.27453C23.0558 1.71343 23.2391 2.33404 23.2391 3.1367V12.2228C23.2281 14.1492 22.2264 15.1124 20.234 15.1124H3.63885C1.64643 15.1018 0.650391 14.1386 0.650391 12.2228V3.1367C0.650391 2.26983 0.873106 1.60619 1.3182 1.14611ZM20.7849 1.83639C20.618 1.79369 20.4343 1.77732 20.2343 1.78823H3.63885C3.5163 1.77764 3.39944 1.78278 3.28825 1.80429L11.8863 10.184L20.7849 1.83639ZM2.23644 2.96012C2.22542 3.01373 2.22542 3.07249 2.23644 3.1367V12.2228C2.23644 13.1327 2.70391 13.5873 3.63885 13.5873H20.234C21.1799 13.5873 21.6531 13.1327 21.6531 12.2228V3.15275L12.4373 11.8054C12.2703 11.9553 12.0813 12.0302 11.87 12.0302C11.6472 12.0196 11.4579 11.9444 11.3023 11.8054L2.23644 2.96012Z" fill="#F1B53C"/>
</svg>
