<svg width="43" height="32" viewBox="0 0 43 32" fill="none" xmlns="http://www.w3.org/2000/svg">
<path d="M18.2276 4.22943H23.9824C26.6454 4.23179 28.9575 6.02743 29.5683 8.56744C29.6195 8.77919 29.8123 8.92887 30.0343 8.92937H38.8529C38.9801 8.92983 39.1022 8.88065 39.1923 8.79268C39.2824 8.70472 39.333 8.58522 39.333 8.46059V3.75892C39.333 2.76169 38.9286 1.80534 38.2089 1.10035C37.4891 0.395369 36.513 -0.000456838 35.4954 3.95685e-07H6.71462C5.69697 -0.000456838 4.72084 0.395369 4.00109 1.10035C3.28133 1.80534 2.87695 2.76169 2.87695 3.75892V8.46059C2.87695 8.58522 2.9276 8.70472 3.01769 8.79268C3.10779 8.88065 3.22992 8.92983 3.3571 8.92937H12.1756C12.3982 8.93014 12.5916 8.77991 12.6417 8.56744C13.2524 6.02743 15.5646 4.23179 18.2276 4.22943Z" fill="#F1B53C"/>
<path d="M1.91883 11.751C1.40978 11.7505 0.92145 11.9485 0.561498 12.3012C0.201546 12.6539 -0.000466424 13.1325 8.08692e-07 13.6313V23.5017C-7.55172e-07 24.3953 0.64186 25.1655 1.53542 25.3441C1.75838 25.389 1.9185 25.5812 1.91883 25.8043V29.6115C1.91883 30.6499 2.77792 31.4918 3.83767 31.4918C4.89741 31.4918 5.7565 30.6499 5.7565 29.6115V25.8525C5.75603 25.7279 5.80623 25.6082 5.89599 25.5199C5.98576 25.4316 6.10771 25.382 6.23489 25.382H35.9759C36.1031 25.382 36.2251 25.4316 36.3148 25.5199C36.4046 25.6082 36.4548 25.7279 36.4543 25.8525V29.6115C36.4543 30.6499 37.3134 31.4918 38.3731 31.4918C39.4329 31.4918 40.292 30.6499 40.292 29.6115V25.8043C40.2923 25.5812 40.4524 25.389 40.6754 25.3441C41.569 25.1655 42.2108 24.3953 42.2108 23.5017V13.6313C42.2113 13.1325 42.0093 12.6539 41.6493 12.3012C41.2894 11.9485 40.801 11.7505 40.292 11.751H1.91883Z" fill="#F1B53C"/>
</svg>
