<svg width="47" height="48" viewBox="0 0 47 48" fill="none" xmlns="http://www.w3.org/2000/svg">
<g clip-path="url(#clip0_378_6969)">
<path d="M36.6035 11.9366C36.2166 10.7648 35.1332 9.93066 33.8563 9.93066H12.575C11.2982 9.93066 10.2341 10.7648 9.82781 11.9366L5.80371 23.8334V39.7223C5.80371 40.8147 6.67431 41.7084 7.73837 41.7084H9.67304C10.7371 41.7084 11.6077 40.8147 11.6077 39.7223V37.7362H34.8236V39.7223C34.8236 40.8147 35.6942 41.7084 36.7583 41.7084H38.693C39.757 41.7084 40.6276 40.8147 40.6276 39.7223V23.8334L36.6035 11.9366ZM12.575 31.7779C10.9693 31.7779 9.67304 30.4472 9.67304 28.7987C9.67304 27.1502 10.9693 25.8196 12.575 25.8196C14.1808 25.8196 15.477 27.1502 15.477 28.7987C15.477 30.4472 14.1808 31.7779 12.575 31.7779ZM33.8563 31.7779C32.2505 31.7779 30.9543 30.4472 30.9543 28.7987C30.9543 27.1502 32.2505 25.8196 33.8563 25.8196C35.4621 25.8196 36.7583 27.1502 36.7583 28.7987C36.7583 30.4472 35.4621 31.7779 33.8563 31.7779ZM9.67304 21.8473L12.575 12.9098H33.8563L36.7583 21.8473H9.67304Z" fill="#F1B53C"/>
</g>
<defs>
<clipPath id="clip0_378_6969">
<rect width="46.4319" height="47.6667" fill="white"/>
</clipPath>
</defs>
</svg>
