<svg width="25" height="24" viewBox="0 0 25 24" fill="none" xmlns="http://www.w3.org/2000/svg">
<g clip-path="url(#clip0_361_8789)">
<path d="M13.545 6.65257C14.7192 6.84573 15.7926 7.37806 16.6481 8.19563C17.4989 9.01097 18.0567 10.0397 18.2583 11.1672C18.3356 11.6119 18.734 11.9331 19.2051 11.9331C19.2661 11.9331 19.32 11.9264 19.3575 11.9197C19.3598 11.9197 19.3622 11.9197 19.3645 11.9174C19.62 11.877 19.8426 11.7445 19.9903 11.5401C20.138 11.3379 20.1942 11.0953 20.1497 10.855C19.8825 9.35013 19.1419 7.98001 18.0051 6.89065C16.8637 5.8013 15.4317 5.09153 13.8637 4.83772H13.8614C13.3387 4.75462 12.8442 5.09378 12.7575 5.59241C12.6755 6.09554 13.027 6.56946 13.545 6.65257Z" fill="#F1B53C"/>
<path d="M19.4538 14.3629C18.9288 13.8396 18.2936 13.5633 17.6163 13.5633C16.946 13.5633 16.3061 13.8351 15.7694 14.3517L14.4358 15.6297C14.403 15.614 14.3702 15.5982 14.3397 15.5825L14.2718 15.5511C14.1288 15.4814 13.9647 15.4028 13.8288 15.322C12.46 14.4887 11.2108 13.3971 10.0061 11.982C9.49052 11.3599 9.12958 10.832 8.86474 10.3064C9.19989 10.0032 9.51161 9.7 9.80458 9.4125C9.87021 9.34961 9.93583 9.28447 10.0038 9.21934C10.0694 9.1542 10.1374 9.08906 10.2054 9.02393C10.7632 8.48936 11.0585 7.86943 11.0561 7.23154C11.0561 6.5959 10.7608 5.97822 10.2054 5.44814L8.90927 4.20605C8.83427 4.13418 8.75927 4.0623 8.68661 3.99043C8.61396 3.91855 8.53896 3.84668 8.4663 3.77705L8.36317 3.67598C8.10771 3.42666 7.84286 3.16836 7.57568 2.93252C7.05536 2.43613 6.42489 2.17334 5.75692 2.17334C5.0913 2.17334 4.45614 2.43613 3.91474 2.93252C3.91239 2.93477 3.91005 2.93477 3.91005 2.93701L2.28583 4.49131C1.62255 5.12695 1.24521 5.90186 1.16317 6.79356V6.7958C1.07646 7.85147 1.27567 8.96553 1.7913 10.302C2.57177 12.3234 3.74364 14.1967 5.47567 16.1957C7.58974 18.6103 10.128 20.5149 13.0179 21.8559H13.0202C14.1335 22.3657 15.6288 22.9632 17.3163 23.0688C17.3186 23.0688 17.321 23.0688 17.3233 23.0688H17.335C17.4311 23.0732 17.5319 23.0777 17.6374 23.0777C18.821 23.0777 19.8194 22.6667 20.6022 21.8559L20.614 21.8446C20.6233 21.8356 20.6304 21.8289 20.6374 21.8199C20.8718 21.5504 21.1413 21.3011 21.4436 21.0226C21.6522 20.8316 21.8655 20.6362 22.0718 20.4251C22.6038 19.8928 22.8851 19.2729 22.8827 18.6327C22.8804 17.9903 22.5944 17.3772 22.0554 16.8605L19.4538 14.3629ZM19.196 20.6228C18.7788 21.0495 18.3007 21.2404 17.6491 21.2404C17.5882 21.2404 17.5202 21.2359 17.4499 21.2314C16.0999 21.1483 14.8226 20.6362 13.8616 20.1982C11.2085 18.9741 8.88349 17.2312 6.94989 15.0165C5.36786 13.1904 4.30146 11.4879 3.59599 9.66406C3.17411 8.5792 3.01474 7.73916 3.08036 6.94629C3.12255 6.48359 3.30302 6.11523 3.64755 5.78955L5.26005 4.24424C5.4288 4.08926 5.60224 4.00615 5.76396 4.00615C5.9163 4.00615 6.07802 4.08701 6.24911 4.24648C6.25146 4.24873 6.2538 4.25098 6.25614 4.25322C6.53505 4.50479 6.80692 4.76982 7.09521 5.04834L7.10458 5.05732C7.24286 5.19434 7.40224 5.35156 7.56396 5.50205L8.85771 6.74189C9.23505 7.10352 9.23505 7.35732 8.85771 7.71895C8.72177 7.84922 8.58349 7.98174 8.44755 8.1165L8.35146 8.21084C7.98817 8.56348 7.64599 8.8959 7.27333 9.2126C7.26864 9.21709 7.26161 9.22158 7.25693 9.22832L7.23349 9.25078C6.83739 9.63037 6.72958 10.0841 6.91474 10.5962C6.91942 10.6097 6.92411 10.6209 6.9288 10.6321C6.93114 10.6389 6.93349 10.6456 6.93817 10.6523C7.28505 11.4542 7.77255 12.2156 8.52255 13.1253C8.52255 13.1275 8.52489 13.1275 8.52489 13.1298C9.85614 14.6998 11.2601 15.9262 12.8186 16.874C13.0226 16.9976 13.2335 17.1009 13.4304 17.1952C13.5757 17.2648 13.7397 17.3457 13.8757 17.4243C13.8851 17.4311 13.8944 17.4355 13.9038 17.44L13.9108 17.4445C13.9249 17.4513 13.939 17.4603 13.9554 17.467C14.1593 17.5658 14.3608 17.613 14.5694 17.613C14.9257 17.613 15.2538 17.4715 15.5186 17.2042L17.1405 15.6499C17.2577 15.5376 17.4405 15.4028 17.6327 15.4028C17.8108 15.4028 17.9843 15.5354 18.0968 15.6477C18.0991 15.6499 18.0991 15.6499 18.1015 15.6521L20.7194 18.161C20.9772 18.4081 21.153 18.7001 20.6983 19.1583L20.696 19.1605C20.553 19.3088 20.4007 19.4503 20.239 19.6008C20.2038 19.6322 20.1686 19.6659 20.1335 19.6996C19.8054 19.9938 19.4913 20.2858 19.196 20.6228Z" fill="#F1B53C"/>
<path d="M24.2253 10.6752C23.794 8.24271 22.594 6.02357 20.7542 4.26038C18.9073 2.49495 16.5917 1.34495 14.0511 0.933916C13.5284 0.850811 13.0339 1.18997 12.9472 1.6886C12.8604 2.18948 13.2143 2.66341 13.7323 2.74651C15.8815 3.0969 17.8386 4.07171 19.3948 5.56087C20.9511 7.05228 21.9659 8.92776 22.3315 10.9852C22.4089 11.4299 22.8073 11.7511 23.2784 11.7511C23.2808 11.7511 23.2831 11.7511 23.2854 11.7511C23.344 11.7511 23.3933 11.7444 23.4308 11.7376C23.4331 11.7376 23.4354 11.7376 23.4378 11.7354C23.6933 11.695 23.9159 11.5624 24.0636 11.358C24.2136 11.1581 24.2698 10.9156 24.2253 10.6752Z" fill="#F1B53C"/>
</g>
<defs>
<clipPath id="clip0_361_8789">
<rect width="24" height="23" fill="white" transform="translate(0.691895 0.5)"/>
</clipPath>
</defs>
</svg>
