<svg width="1440" height="328" viewBox="0 0 1440 328" fill="none" xmlns="http://www.w3.org/2000/svg">
<path fill-rule="evenodd" clip-rule="evenodd" d="M1440.02 324.464L1379.25 302.113C1318.48 279.762 1196.94 235.06 1075.45 212.855C953.962 190.651 832.528 190.944 711.175 224.983C589.822 259.023 468.551 326.808 347.117 327.101C225.683 327.394 104.086 260.195 43.2873 226.595L-17.5113 192.995L-17.9998 -9.48369L42.7173 -9.63019C103.434 -9.7767 224.869 -10.0697 346.303 -10.3627C467.737 -10.6557 589.171 -10.9487 710.605 -11.2417C832.039 -11.5347 953.473 -11.8277 1074.91 -12.1208C1196.34 -12.4138 1317.78 -12.7068 1378.49 -12.8533L1439.21 -12.9998L1440.02 324.464Z" fill="#06065E"/>
</svg>
